PathFileType	4	(X/Y/Z)	C:/Users/beibeiliu/ov580/test_trc/User3\sequence.8_training_dense_right.trc
DataRate	CameraRate	NumFrames	NumMarkers	Units	OrigDataRate	OrigDataStartFrame	OrigNumFrames
120	120	12	19	mm	120	1	161
Frame#	Time	ThumbCMC			ThumbMCP			ThumbIP			ThumbTip			IndexMCP			IndexPIP			IndexTip			MiddleMCP			MiddlePIP			MiddleTip			RingMCP			RingPIP			RingTip			PinkyMCP			PinkyPIP			PinkyTip			BackHand1			BackHand2			BackHand3	
		X0	Y0	Z0	X1	Y1	Z1	X2	Y2	Z2	X3	Y3	Z3	X4	Y4	Z4	X5	Y5	Z5	X6	Y6	Z6	X7	Y7	Z7	X8	Y8	Z8	X9	Y9	Z9	X10	Y10	Z10	X11	Y11	Z11	X12	Y12	Z12	X13	Y13	Z13	X14	Y14	Z14	X15	Y15	Z15	X16	Y16	Z16	X17	Y17	Z17	X18	Y18	Z18	
0	0	41.7029	-54.3014	7.26977	19.358	-71.8841	-14.5816	8.56545	-86.1857	-39.7682	10.5262	-99.4705	-60.7128	43.9225	-35.1995	-67.5298	31.2647	-42.4913	-98.2171	19.86	-59.2763	-114.194	71.4645	-33.2194	-75.2173	61.5102	-38.0995	-106.534	55.8074	-68.3156	-127.88	88.3877	-42.3555	-70.1808	86.1193	-49.9876	-100.192	80.6962	-79.0396	-114.935	107.814	-59.9825	-59.3811	112.006	-72.1058	-83.1303	108.378	-94.167	-95.8784	95.0919	-36.4646	-22.4542	99.8402	-31.7283	8.06665	65.7585	-28.0685	-3.63012	
1	0.00833333	39.1377	-55.9982	2.37176	23.2556	-72.3729	-14.0658	9.80914	-86.3296	-41.7428	6.30736	-100.998	-59.5498	43.9792	-37.49	-67.765	29.1984	-42.3795	-97.9362	22.9146	-64.2295	-116.648	68.0807	-35.0737	-74.0265	60.2028	-42.2314	-109.641	54.6962	-71.809	-128.786	86.005	-43.2886	-72.2164	90.9058	-51.6741	-98.2256	79.2694	-79.9911	-114.854	107.255	-62.3137	-58.5965	112.079	-74.7617	-84.0138	102.339	-96.8656	-96.0524	94.8139	-39.1029	-22.438	99.9658	-35.1249	7.52046	65.1302	-28.9326	-6.9099	
2	0.0166667	38.8414	-55.6873	6.81761	23.8443	-72.4242	-17.5345	8.24856	-85.6901	-41.6635	9.05205	-98.6268	-61.5145	45.0361	-37.0686	-69.0315	30.0374	-40.1178	-95.4047	24.4028	-61.2566	-115.78	68.4694	-34.2173	-79.8437	60.8382	-42.2323	-110.061	55.3297	-74.2722	-128.895	89.7721	-44.6738	-72.0394	87.7677	-51.3153	-98.6855	80.827	-80.3022	-114.115	108.233	-61.5683	-60.6858	113.075	-74.9297	-82.1771	105.032	-95.3817	-95.0887	96.2971	-39.4659	-24.3305	103.452	-35.5223	3.79438	68.1048	-29.0292	-6.38731	
3	0.025	37.518	-54.7124	3.3978	21.0731	-71.0306	-15.3282	8.45949	-84.1305	-43.6635	6.92924	-98.7517	-63.3021	43.6226	-35.7661	-67.2117	29.4401	-41.6901	-99.2206	25.2527	-62.3103	-117.036	73.0681	-34.6899	-78.7666	64.9921	-43.7905	-111.671	58.2686	-73.9127	-127.281	88.6494	-42.5845	-73.6129	88.6666	-53.6229	-102.639	79.3883	-80.8113	-113.632	108.292	-61.5841	-59.7841	112.814	-73.2581	-81.1912	103.629	-99.5561	-95.9713	94.052	-36.6943	-24.5246	102.005	-36.8738	6.4441	64.151	-28.759	-9.91231	
4	0.0333333	36.8785	-52.9432	2.42592	22.2958	-69.6355	-16.0755	7.89496	-82.4978	-41.6889	7.78871	-97.4234	-63.1833	45.4685	-34.5121	-70.998	30.7399	-38.765	-96.9643	26.2219	-61.7349	-115.691	69.7719	-34.1416	-74.6531	63.5363	-43.9256	-110.692	55.5852	-72.0277	-126.401	89.0607	-45.114	-68.8374	86.3753	-54.0227	-102.273	79.0827	-82.8438	-113.95	109.929	-63.4397	-56.9738	111.873	-76.4935	-84.6611	102.747	-100.701	-94.4184	95.6872	-37.8236	-21.067	105.949	-35.7498	6.31944	70.7212	-29.4077	-6.3227	
5	0.0416667	39.2735	-54.232	2.39518	25.8107	-70.239	-15.7822	11.4322	-82.7845	-36.4971	8.56701	-96.5106	-58.5051	45.012	-35.7322	-67.9062	36.3266	-41.8892	-98.3535	21.3539	-64.1578	-114.542	74.623	-36.0871	-74.1926	69.1576	-43.0988	-107.702	57.2531	-71.8623	-124.232	90.094	-45.6373	-71.0957	92.221	-55.0338	-99.3264	80.2504	-80.8107	-111.038	113.016	-65.7756	-59.3063	112.886	-76.0622	-80.8109	104.65	-104.362	-95.0184	101.527	-41.4642	-22.9573	104.85	-38.3478	5.03604	72.2819	-30.6846	-9.07687	
6	0.05	43.3442	-56.1835	4.51719	23.6247	-70.714	-12.884	8.07662	-83.9573	-37.6887	6.21414	-99.0383	-57.3236	48.4017	-37.3293	-67.1476	33.4433	-42.5088	-96.0794	28.91	-64.7739	-113.875	74.0364	-36.4092	-73.5836	68.8174	-44.3945	-105.938	59.2795	-75.1281	-123.563	96.1925	-47.9466	-69.858	94.955	-57.7407	-97.8278	85.093	-84.2735	-110.105	112.084	-66.9978	-55.1477	116.819	-81.9764	-80.1273	105.786	-106.292	-92.9106	100.539	-40.9655	-18.4003	104.638	-39.6075	9.05052	71.9935	-32.1527	-6.70458	
7	0.0583333	43.5873	-56.4758	9.34589	25.0372	-71.1248	-12.7837	10.1979	-83.8817	-36.1578	7.57587	-98.4557	-58.8574	48.292	-36.4352	-66.5336	37.9909	-44.6973	-97.455	27.7776	-66.586	-114.617	77.2709	-37.6898	-75.07	70.1554	-45.433	-106.361	62.4478	-78.8543	-125.001	97.8374	-49.3472	-70.1569	96.5846	-59.3912	-98.0642	83.3846	-83.1589	-110.019	113.852	-67.5988	-53.307	117.203	-78.6639	-77.6642	109.978	-104.787	-93.1457	101.231	-40.723	-22.1758	107.098	-39.9701	11.3155	71.7042	-31.4149	-3.00286	
8	0.0666667	46.3589	-54.9701	3.5351	25.3932	-69.2022	-12.8451	12.5436	-81.2554	-35.0304	7.29024	-96.1895	-56.6379	50.9797	-35.5859	-68.7971	38.1413	-40.7052	-97.051	30.9643	-60.9412	-113.23	79.1454	-35.933	-74.2475	71.5769	-45.1383	-108.464	61.8763	-70.4063	-123.5	95.7894	-47.1184	-66.2404	94.9527	-54.9471	-96.2858	84.0656	-84.9931	-110.72	115.913	-66.6164	-55.5791	115.693	-78.932	-79.8687	111.871	-103.124	-90.5906	106.331	-40.7695	-21.4383	110.654	-40.2298	7.42825	75.9598	-31.7109	-3.10954	
9	0.075	44.1947	-51.2936	7.92109	24.8663	-67.476	-13.9956	10.6885	-78.62	-35.5927	6.38291	-93.0064	-59.0817	53.2281	-33.2206	-69.5363	37.6488	-36.8314	-94.1175	29.2528	-61.4245	-113.793	75.92	-32.2059	-76.8856	70.9348	-42.6953	-108.884	60.072	-68.3122	-125.339	96.8293	-45.6009	-67.0034	94.1424	-52.6248	-96.8006	83.2636	-80.6701	-110.759	117.493	-66.1771	-56.301	116.493	-77.8882	-80.2368	106.957	-99.2287	-93.8208	100.98	-40.3332	-19.0826	110.121	-39.5355	5.80252	78.3445	-28.5377	-3.21847	
10	0.0833333	45.862	-50.757	4.62599	22.2746	-65.5689	-15.901	7.07268	-78.5352	-36.914	6.43682	-92.4068	-59.8191	50.9464	-31.8158	-65.15	35.7825	-37.4584	-97.0697	31.6233	-57.3503	-114.14	77.3315	-33.1246	-76.382	73.4807	-39.8122	-106.441	61.1966	-68.364	-125.049	97.3287	-44.165	-70.5544	94.6136	-52.1103	-97.6372	83.1182	-79.2442	-111.098	116.442	-66.3626	-56.6406	114.611	-76.8392	-80.2106	103.853	-101.023	-95.042	100.814	-39.3059	-17.4065	108.988	-37.0252	9.86256	76.0538	-29.8638	-2.5298	
11	0.0916667	44.1637	-51.9394	9.46167	27.3605	-65.8706	-14.1711	8.00601	-78.2107	-40.1926	4.35903	-92.2639	-61.6244	48.1302	-31.764	-66.8996	37.6267	-37.2271	-96.8515	27.9734	-59.5104	-114.082	74.356	-33.2775	-72.5651	70.7973	-40.3697	-107.259	57.1244	-67.6497	-125.792	95.7536	-44.097	-69.3678	94.3981	-53.0055	-96.9672	79.9926	-80.6899	-110.634	111.072	-64.4228	-60.1155	113.293	-79.2731	-82.5791	104.485	-101.869	-93.5188	101.905	-40.1184	-22.5763	107.439	-38.5454	8.43771	71.2955	-29.1207	-5.92238	
